<mxfile host="app.diagrams.net" modified="2021-02-25T20:20:20.885Z" agent="5.0 (Windows NT 10.0; WOW64) AppleWebKit/537.36 (KHTML, like Gecko) Chrome/88.0.4324.190 Safari/537.36" etag="TLTzuEH0mK5IEC1qQScD" version="14.4.2" type="github">
  <diagram id="prtHgNgQTEPvFCAcTncT" name="Page-1">
    <mxGraphModel dx="1021" dy="541" grid="0" gridSize="10" guides="1" tooltips="1" connect="1" arrows="1" fold="1" page="0" pageScale="1" pageWidth="827" pageHeight="1169" background="#ffffff" math="0" shadow="0">
      <root>
        <mxCell id="0" />
        <mxCell id="1" parent="0" />
        <mxCell id="VYftyO8wbhfdj3iP8Mo4-6" value="" style="group" parent="1" vertex="1" connectable="0">
          <mxGeometry x="120" y="94" width="2309" height="940" as="geometry" />
        </mxCell>
        <mxCell id="dNxyNK7c78bLwvsdeMH5-19" value="DLP IDC Integration" style="swimlane;html=1;childLayout=stackLayout;resizeParent=1;resizeParentMax=0;horizontal=0;startSize=20;horizontalStack=0;" parent="VYftyO8wbhfdj3iP8Mo4-6" vertex="1">
          <mxGeometry y="27" width="2309" height="913" as="geometry" />
        </mxCell>
        <mxCell id="dNxyNK7c78bLwvsdeMH5-20" value="User" style="swimlane;html=1;startSize=20;horizontal=0;" parent="dNxyNK7c78bLwvsdeMH5-19" vertex="1">
          <mxGeometry x="20" width="2289" height="334" as="geometry" />
        </mxCell>
        <mxCell id="v4-evalS4Eremka4FDAH-11" style="edgeStyle=orthogonalEdgeStyle;rounded=0;orthogonalLoop=1;jettySize=auto;html=1;entryX=0;entryY=0.5;entryDx=0;entryDy=0;" parent="dNxyNK7c78bLwvsdeMH5-20" source="v4-evalS4Eremka4FDAH-9" target="v4-evalS4Eremka4FDAH-10" edge="1">
          <mxGeometry relative="1" as="geometry" />
        </mxCell>
        <mxCell id="v4-evalS4Eremka4FDAH-9" value="" style="ellipse;whiteSpace=wrap;html=1;aspect=fixed;fillColor=#008a00;strokeColor=#005700;fontColor=#ffffff;" parent="dNxyNK7c78bLwvsdeMH5-20" vertex="1">
          <mxGeometry x="70" y="50" width="20" height="20" as="geometry" />
        </mxCell>
        <mxCell id="v4-evalS4Eremka4FDAH-10" value="Request Policy or Exception" style="rounded=1;whiteSpace=wrap;html=1;fillColor=#dae8fc;strokeColor=#6c8ebf;" parent="dNxyNK7c78bLwvsdeMH5-20" vertex="1">
          <mxGeometry x="140" y="35" width="100" height="50" as="geometry" />
        </mxCell>
        <mxCell id="VYftyO8wbhfdj3iP8Mo4-29" style="edgeStyle=orthogonalEdgeStyle;rounded=0;orthogonalLoop=1;jettySize=auto;html=1;entryX=0.5;entryY=0;entryDx=0;entryDy=0;" parent="dNxyNK7c78bLwvsdeMH5-20" source="VYftyO8wbhfdj3iP8Mo4-24" target="VYftyO8wbhfdj3iP8Mo4-26" edge="1">
          <mxGeometry relative="1" as="geometry" />
        </mxCell>
        <mxCell id="VYftyO8wbhfdj3iP8Mo4-30" style="edgeStyle=orthogonalEdgeStyle;rounded=0;orthogonalLoop=1;jettySize=auto;html=1;entryX=0.5;entryY=0;entryDx=0;entryDy=0;" parent="dNxyNK7c78bLwvsdeMH5-20" source="VYftyO8wbhfdj3iP8Mo4-24" target="VYftyO8wbhfdj3iP8Mo4-27" edge="1">
          <mxGeometry relative="1" as="geometry" />
        </mxCell>
        <mxCell id="VYftyO8wbhfdj3iP8Mo4-24" value="Approval Flow: &lt;br&gt;Owner-&amp;gt;LM-&amp;gt;RISO" style="rounded=1;whiteSpace=wrap;html=1;fillColor=#dae8fc;strokeColor=#6c8ebf;" parent="dNxyNK7c78bLwvsdeMH5-20" vertex="1">
          <mxGeometry x="1109.5" y="30" width="123" height="60" as="geometry" />
        </mxCell>
        <mxCell id="VYftyO8wbhfdj3iP8Mo4-33" style="edgeStyle=orthogonalEdgeStyle;rounded=0;orthogonalLoop=1;jettySize=auto;html=1;entryX=0.5;entryY=0;entryDx=0;entryDy=0;" parent="dNxyNK7c78bLwvsdeMH5-20" source="VYftyO8wbhfdj3iP8Mo4-26" target="VYftyO8wbhfdj3iP8Mo4-31" edge="1">
          <mxGeometry relative="1" as="geometry">
            <Array as="points">
              <mxPoint x="1363" y="147" />
              <mxPoint x="1301" y="147" />
            </Array>
          </mxGeometry>
        </mxCell>
        <mxCell id="VYftyO8wbhfdj3iP8Mo4-35" style="edgeStyle=orthogonalEdgeStyle;rounded=0;orthogonalLoop=1;jettySize=auto;html=1;entryX=0.5;entryY=0;entryDx=0;entryDy=0;" parent="dNxyNK7c78bLwvsdeMH5-20" source="VYftyO8wbhfdj3iP8Mo4-26" target="VYftyO8wbhfdj3iP8Mo4-32" edge="1">
          <mxGeometry relative="1" as="geometry">
            <Array as="points">
              <mxPoint x="1427" y="147" />
            </Array>
          </mxGeometry>
        </mxCell>
        <mxCell id="VYftyO8wbhfdj3iP8Mo4-26" value="Approved" style="rhombus;whiteSpace=wrap;html=1;fillColor=#d5e8d4;strokeColor=#82b366;" parent="dNxyNK7c78bLwvsdeMH5-20" vertex="1">
          <mxGeometry x="1338" y="87" width="50" height="50" as="geometry" />
        </mxCell>
        <mxCell id="VYftyO8wbhfdj3iP8Mo4-38" style="edgeStyle=orthogonalEdgeStyle;rounded=0;orthogonalLoop=1;jettySize=auto;html=1;entryX=0.5;entryY=0;entryDx=0;entryDy=0;" parent="dNxyNK7c78bLwvsdeMH5-20" source="VYftyO8wbhfdj3iP8Mo4-27" target="VYftyO8wbhfdj3iP8Mo4-36" edge="1">
          <mxGeometry relative="1" as="geometry">
            <Array as="points">
              <mxPoint x="1657" y="151" />
            </Array>
          </mxGeometry>
        </mxCell>
        <mxCell id="VYftyO8wbhfdj3iP8Mo4-39" style="edgeStyle=orthogonalEdgeStyle;rounded=0;orthogonalLoop=1;jettySize=auto;html=1;entryX=0.5;entryY=0;entryDx=0;entryDy=0;" parent="dNxyNK7c78bLwvsdeMH5-20" target="VYftyO8wbhfdj3iP8Mo4-37" edge="1">
          <mxGeometry relative="1" as="geometry">
            <mxPoint x="1716" y="148" as="sourcePoint" />
            <mxPoint x="1783" y="189" as="targetPoint" />
            <Array as="points">
              <mxPoint x="1716" y="151" />
              <mxPoint x="1783" y="151" />
            </Array>
          </mxGeometry>
        </mxCell>
        <mxCell id="VYftyO8wbhfdj3iP8Mo4-27" value="Rejected" style="rhombus;whiteSpace=wrap;html=1;fillColor=#f8cecc;strokeColor=#b85450;" parent="dNxyNK7c78bLwvsdeMH5-20" vertex="1">
          <mxGeometry x="1691" y="102" width="50" height="50" as="geometry" />
        </mxCell>
        <mxCell id="VYftyO8wbhfdj3iP8Mo4-31" value="Policy" style="rhombus;whiteSpace=wrap;html=1;fillColor=#fff2cc;strokeColor=#d6b656;" parent="dNxyNK7c78bLwvsdeMH5-20" vertex="1">
          <mxGeometry x="1275" y="190" width="50" height="50" as="geometry" />
        </mxCell>
        <mxCell id="VYftyO8wbhfdj3iP8Mo4-32" value="Exception" style="rhombus;whiteSpace=wrap;html=1;fillColor=#fff2cc;strokeColor=#d6b656;" parent="dNxyNK7c78bLwvsdeMH5-20" vertex="1">
          <mxGeometry x="1401" y="190" width="50" height="50" as="geometry" />
        </mxCell>
        <mxCell id="VYftyO8wbhfdj3iP8Mo4-36" value="Policy" style="rhombus;whiteSpace=wrap;html=1;fillColor=#fff2cc;strokeColor=#d6b656;" parent="dNxyNK7c78bLwvsdeMH5-20" vertex="1">
          <mxGeometry x="1632" y="193" width="50" height="50" as="geometry" />
        </mxCell>
        <mxCell id="VYftyO8wbhfdj3iP8Mo4-61" style="edgeStyle=orthogonalEdgeStyle;rounded=0;orthogonalLoop=1;jettySize=auto;html=1;entryX=0;entryY=0.5;entryDx=0;entryDy=0;" parent="dNxyNK7c78bLwvsdeMH5-20" source="VYftyO8wbhfdj3iP8Mo4-37" target="VYftyO8wbhfdj3iP8Mo4-60" edge="1">
          <mxGeometry relative="1" as="geometry" />
        </mxCell>
        <mxCell id="VYftyO8wbhfdj3iP8Mo4-37" value="Exception" style="rhombus;whiteSpace=wrap;html=1;fillColor=#fff2cc;strokeColor=#d6b656;" parent="dNxyNK7c78bLwvsdeMH5-20" vertex="1">
          <mxGeometry x="1758" y="193" width="50" height="50" as="geometry" />
        </mxCell>
        <mxCell id="VYftyO8wbhfdj3iP8Mo4-64" style="edgeStyle=orthogonalEdgeStyle;rounded=0;orthogonalLoop=1;jettySize=auto;html=1;entryX=0;entryY=0.5;entryDx=0;entryDy=0;" parent="dNxyNK7c78bLwvsdeMH5-20" source="VYftyO8wbhfdj3iP8Mo4-60" target="VYftyO8wbhfdj3iP8Mo4-62" edge="1">
          <mxGeometry relative="1" as="geometry" />
        </mxCell>
        <mxCell id="VYftyO8wbhfdj3iP8Mo4-60" value="The Exception is set by AD Groups?" style="rounded=1;whiteSpace=wrap;html=1;fillColor=#dae8fc;strokeColor=#6c8ebf;" parent="dNxyNK7c78bLwvsdeMH5-20" vertex="1">
          <mxGeometry x="1853" y="188" width="120" height="60" as="geometry" />
        </mxCell>
        <mxCell id="VYftyO8wbhfdj3iP8Mo4-62" value="Yes" style="rhombus;whiteSpace=wrap;html=1;fillColor=#d5e8d4;strokeColor=#82b366;" parent="dNxyNK7c78bLwvsdeMH5-20" vertex="1">
          <mxGeometry x="2063" y="193" width="50" height="50" as="geometry" />
        </mxCell>
        <mxCell id="VYftyO8wbhfdj3iP8Mo4-63" value="No" style="rhombus;whiteSpace=wrap;html=1;fillColor=#f8cecc;strokeColor=#b85450;" parent="dNxyNK7c78bLwvsdeMH5-20" vertex="1">
          <mxGeometry x="1888" y="274" width="50" height="50" as="geometry" />
        </mxCell>
        <mxCell id="VYftyO8wbhfdj3iP8Mo4-65" style="edgeStyle=orthogonalEdgeStyle;rounded=0;orthogonalLoop=1;jettySize=auto;html=1;entryX=0.5;entryY=0;entryDx=0;entryDy=0;" parent="dNxyNK7c78bLwvsdeMH5-20" source="VYftyO8wbhfdj3iP8Mo4-60" target="VYftyO8wbhfdj3iP8Mo4-63" edge="1">
          <mxGeometry relative="1" as="geometry" />
        </mxCell>
        <mxCell id="v4-evalS4Eremka4FDAH-30" style="edgeStyle=orthogonalEdgeStyle;rounded=0;orthogonalLoop=1;jettySize=auto;html=1;entryX=0.5;entryY=0;entryDx=0;entryDy=0;dashed=1;" parent="dNxyNK7c78bLwvsdeMH5-19" source="v4-evalS4Eremka4FDAH-26" target="v4-evalS4Eremka4FDAH-29" edge="1">
          <mxGeometry relative="1" as="geometry" />
        </mxCell>
        <mxCell id="v4-evalS4Eremka4FDAH-37" style="edgeStyle=orthogonalEdgeStyle;rounded=0;orthogonalLoop=1;jettySize=auto;html=1;entryX=0.5;entryY=0;entryDx=0;entryDy=0;dashed=1;" parent="dNxyNK7c78bLwvsdeMH5-19" source="v4-evalS4Eremka4FDAH-34" target="v4-evalS4Eremka4FDAH-36" edge="1">
          <mxGeometry relative="1" as="geometry" />
        </mxCell>
        <mxCell id="dNxyNK7c78bLwvsdeMH5-21" value="IDC" style="swimlane;html=1;startSize=20;horizontal=0;" parent="dNxyNK7c78bLwvsdeMH5-19" vertex="1">
          <mxGeometry x="20" y="334" width="2289" height="242" as="geometry" />
        </mxCell>
        <mxCell id="v4-evalS4Eremka4FDAH-13" value="Policy" style="rhombus;whiteSpace=wrap;html=1;fillColor=#fff2cc;strokeColor=#d6b656;" parent="dNxyNK7c78bLwvsdeMH5-21" vertex="1">
          <mxGeometry x="164.5" y="174" width="50" height="50" as="geometry" />
        </mxCell>
        <mxCell id="v4-evalS4Eremka4FDAH-24" style="edgeStyle=orthogonalEdgeStyle;rounded=0;orthogonalLoop=1;jettySize=auto;html=1;entryX=0;entryY=0.5;entryDx=0;entryDy=0;exitX=1;exitY=0.5;exitDx=0;exitDy=0;" parent="dNxyNK7c78bLwvsdeMH5-21" source="v4-evalS4Eremka4FDAH-14" target="v4-evalS4Eremka4FDAH-23" edge="1">
          <mxGeometry relative="1" as="geometry">
            <mxPoint x="335" y="52" as="sourcePoint" />
          </mxGeometry>
        </mxCell>
        <mxCell id="v4-evalS4Eremka4FDAH-14" value="Exception" style="rhombus;whiteSpace=wrap;html=1;fillColor=#fff2cc;strokeColor=#d6b656;" parent="dNxyNK7c78bLwvsdeMH5-21" vertex="1">
          <mxGeometry x="271" y="99" width="50" height="50" as="geometry" />
        </mxCell>
        <mxCell id="v4-evalS4Eremka4FDAH-27" style="edgeStyle=orthogonalEdgeStyle;rounded=0;orthogonalLoop=1;jettySize=auto;html=1;entryX=0.5;entryY=0;entryDx=0;entryDy=0;" parent="dNxyNK7c78bLwvsdeMH5-21" source="v4-evalS4Eremka4FDAH-23" target="v4-evalS4Eremka4FDAH-26" edge="1">
          <mxGeometry relative="1" as="geometry" />
        </mxCell>
        <mxCell id="v4-evalS4Eremka4FDAH-28" style="edgeStyle=orthogonalEdgeStyle;rounded=0;orthogonalLoop=1;jettySize=auto;html=1;entryX=0;entryY=0.5;entryDx=0;entryDy=0;" parent="dNxyNK7c78bLwvsdeMH5-21" source="v4-evalS4Eremka4FDAH-23" target="v4-evalS4Eremka4FDAH-25" edge="1">
          <mxGeometry relative="1" as="geometry" />
        </mxCell>
        <mxCell id="v4-evalS4Eremka4FDAH-23" value="The Exception can be set by AD Groups?" style="rounded=1;whiteSpace=wrap;html=1;fillColor=#dae8fc;strokeColor=#6c8ebf;" parent="dNxyNK7c78bLwvsdeMH5-21" vertex="1">
          <mxGeometry x="388" y="94" width="120" height="60" as="geometry" />
        </mxCell>
        <mxCell id="v4-evalS4Eremka4FDAH-35" style="edgeStyle=orthogonalEdgeStyle;rounded=0;orthogonalLoop=1;jettySize=auto;html=1;entryX=0;entryY=0.5;entryDx=0;entryDy=0;" parent="dNxyNK7c78bLwvsdeMH5-21" source="v4-evalS4Eremka4FDAH-25" target="v4-evalS4Eremka4FDAH-34" edge="1">
          <mxGeometry relative="1" as="geometry" />
        </mxCell>
        <mxCell id="v4-evalS4Eremka4FDAH-25" value="Yes" style="rhombus;whiteSpace=wrap;html=1;fillColor=#d5e8d4;strokeColor=#82b366;" parent="dNxyNK7c78bLwvsdeMH5-21" vertex="1">
          <mxGeometry x="544" y="99" width="50" height="50" as="geometry" />
        </mxCell>
        <mxCell id="v4-evalS4Eremka4FDAH-26" value="No" style="rhombus;whiteSpace=wrap;html=1;fillColor=#f8cecc;strokeColor=#b85450;" parent="dNxyNK7c78bLwvsdeMH5-21" vertex="1">
          <mxGeometry x="423" y="176" width="50" height="50" as="geometry" />
        </mxCell>
        <mxCell id="v4-evalS4Eremka4FDAH-34" value="Implement the exception on the AD Group" style="rounded=1;whiteSpace=wrap;html=1;fillColor=#dae8fc;strokeColor=#6c8ebf;" parent="dNxyNK7c78bLwvsdeMH5-21" vertex="1">
          <mxGeometry x="626" y="94" width="120" height="60" as="geometry" />
        </mxCell>
        <mxCell id="v4-evalS4Eremka4FDAH-47" style="edgeStyle=orthogonalEdgeStyle;rounded=0;orthogonalLoop=1;jettySize=auto;html=1;entryX=0.5;entryY=0;entryDx=0;entryDy=0;" parent="dNxyNK7c78bLwvsdeMH5-21" source="v4-evalS4Eremka4FDAH-40" target="v4-evalS4Eremka4FDAH-46" edge="1">
          <mxGeometry relative="1" as="geometry" />
        </mxCell>
        <mxCell id="v4-evalS4Eremka4FDAH-52" style="edgeStyle=orthogonalEdgeStyle;rounded=0;orthogonalLoop=1;jettySize=auto;html=1;entryX=0;entryY=0.5;entryDx=0;entryDy=0;" parent="dNxyNK7c78bLwvsdeMH5-21" source="v4-evalS4Eremka4FDAH-40" target="v4-evalS4Eremka4FDAH-51" edge="1">
          <mxGeometry relative="1" as="geometry" />
        </mxCell>
        <mxCell id="v4-evalS4Eremka4FDAH-40" value="Approval Flow: &lt;br&gt;LM-&amp;gt;RISO-&amp;gt;OpCo-1" style="rounded=1;whiteSpace=wrap;html=1;fillColor=#dae8fc;strokeColor=#6c8ebf;" parent="dNxyNK7c78bLwvsdeMH5-21" vertex="1">
          <mxGeometry x="128" y="14" width="123" height="60" as="geometry" />
        </mxCell>
        <mxCell id="v4-evalS4Eremka4FDAH-48" style="edgeStyle=orthogonalEdgeStyle;rounded=0;orthogonalLoop=1;jettySize=auto;html=1;entryX=0.5;entryY=0;entryDx=0;entryDy=0;" parent="dNxyNK7c78bLwvsdeMH5-21" source="v4-evalS4Eremka4FDAH-46" target="v4-evalS4Eremka4FDAH-13" edge="1">
          <mxGeometry relative="1" as="geometry" />
        </mxCell>
        <mxCell id="v4-evalS4Eremka4FDAH-50" style="edgeStyle=orthogonalEdgeStyle;rounded=0;orthogonalLoop=1;jettySize=auto;html=1;entryX=0;entryY=0.5;entryDx=0;entryDy=0;" parent="dNxyNK7c78bLwvsdeMH5-21" source="v4-evalS4Eremka4FDAH-46" target="v4-evalS4Eremka4FDAH-14" edge="1">
          <mxGeometry relative="1" as="geometry" />
        </mxCell>
        <mxCell id="v4-evalS4Eremka4FDAH-46" value="Approved" style="rhombus;whiteSpace=wrap;html=1;fillColor=#d5e8d4;strokeColor=#82b366;" parent="dNxyNK7c78bLwvsdeMH5-21" vertex="1">
          <mxGeometry x="164.5" y="99" width="50" height="50" as="geometry" />
        </mxCell>
        <mxCell id="v4-evalS4Eremka4FDAH-54" style="edgeStyle=orthogonalEdgeStyle;rounded=0;orthogonalLoop=1;jettySize=auto;html=1;" parent="dNxyNK7c78bLwvsdeMH5-21" source="v4-evalS4Eremka4FDAH-51" target="v4-evalS4Eremka4FDAH-53" edge="1">
          <mxGeometry relative="1" as="geometry" />
        </mxCell>
        <mxCell id="v4-evalS4Eremka4FDAH-51" value="Rejected" style="rhombus;whiteSpace=wrap;html=1;fillColor=#f8cecc;strokeColor=#b85450;" parent="dNxyNK7c78bLwvsdeMH5-21" vertex="1">
          <mxGeometry x="302" y="19" width="50" height="50" as="geometry" />
        </mxCell>
        <mxCell id="v4-evalS4Eremka4FDAH-53" value="Discard the request" style="rounded=1;whiteSpace=wrap;html=1;fillColor=#f8cecc;strokeColor=#b85450;" parent="dNxyNK7c78bLwvsdeMH5-21" vertex="1">
          <mxGeometry x="390" y="14" width="123" height="60" as="geometry" />
        </mxCell>
        <mxCell id="VYftyO8wbhfdj3iP8Mo4-79" value="Revoke the Exception on the AD Group" style="rounded=1;whiteSpace=wrap;html=1;fillColor=#dae8fc;strokeColor=#6c8ebf;" parent="dNxyNK7c78bLwvsdeMH5-21" vertex="1">
          <mxGeometry x="2104" y="70" width="120" height="60" as="geometry" />
        </mxCell>
        <mxCell id="VYftyO8wbhfdj3iP8Mo4-72" value="Raise a Task to GSA and DLP Team" style="rounded=1;whiteSpace=wrap;html=1;fillColor=#dae8fc;strokeColor=#6c8ebf;" parent="dNxyNK7c78bLwvsdeMH5-21" vertex="1">
          <mxGeometry x="1953" y="69" width="120" height="60" as="geometry" />
        </mxCell>
        <mxCell id="v4-evalS4Eremka4FDAH-33" style="edgeStyle=orthogonalEdgeStyle;rounded=0;orthogonalLoop=1;jettySize=auto;html=1;entryX=0.5;entryY=0;entryDx=0;entryDy=0;dashed=1;" parent="dNxyNK7c78bLwvsdeMH5-19" source="v4-evalS4Eremka4FDAH-29" target="v4-evalS4Eremka4FDAH-32" edge="1">
          <mxGeometry relative="1" as="geometry" />
        </mxCell>
        <mxCell id="v4-evalS4Eremka4FDAH-39" style="edgeStyle=orthogonalEdgeStyle;rounded=0;orthogonalLoop=1;jettySize=auto;html=1;entryX=0.5;entryY=0;entryDx=0;entryDy=0;dashed=1;" parent="dNxyNK7c78bLwvsdeMH5-19" source="v4-evalS4Eremka4FDAH-36" target="v4-evalS4Eremka4FDAH-38" edge="1">
          <mxGeometry relative="1" as="geometry" />
        </mxCell>
        <mxCell id="dNxyNK7c78bLwvsdeMH5-22" value="SNOW" style="swimlane;html=1;startSize=20;horizontal=0;" parent="dNxyNK7c78bLwvsdeMH5-19" vertex="1">
          <mxGeometry x="20" y="576" width="2289" height="187" as="geometry" />
        </mxCell>
        <mxCell id="v4-evalS4Eremka4FDAH-19" value="Raise a Task to the DLP Team" style="rounded=1;whiteSpace=wrap;html=1;fillColor=#dae8fc;strokeColor=#6c8ebf;" parent="dNxyNK7c78bLwvsdeMH5-22" vertex="1">
          <mxGeometry x="129.5" y="73" width="120" height="60" as="geometry" />
        </mxCell>
        <mxCell id="v4-evalS4Eremka4FDAH-29" value="Raise a Task to the DLP Team" style="rounded=1;whiteSpace=wrap;html=1;fillColor=#dae8fc;strokeColor=#6c8ebf;" parent="dNxyNK7c78bLwvsdeMH5-22" vertex="1">
          <mxGeometry x="388" y="73" width="120" height="60" as="geometry" />
        </mxCell>
        <mxCell id="v4-evalS4Eremka4FDAH-36" value="Raise a Task to the DLP Team" style="rounded=1;whiteSpace=wrap;html=1;fillColor=#dae8fc;strokeColor=#6c8ebf;" parent="dNxyNK7c78bLwvsdeMH5-22" vertex="1">
          <mxGeometry x="626" y="73" width="120" height="60" as="geometry" />
        </mxCell>
        <mxCell id="VYftyO8wbhfdj3iP8Mo4-12" style="edgeStyle=orthogonalEdgeStyle;rounded=0;orthogonalLoop=1;jettySize=auto;html=1;entryX=0;entryY=0.5;entryDx=0;entryDy=0;" parent="dNxyNK7c78bLwvsdeMH5-22" target="VYftyO8wbhfdj3iP8Mo4-11" edge="1">
          <mxGeometry relative="1" as="geometry">
            <mxPoint x="847" y="60" as="sourcePoint" />
          </mxGeometry>
        </mxCell>
        <mxCell id="VYftyO8wbhfdj3iP8Mo4-10" value="" style="ellipse;whiteSpace=wrap;html=1;aspect=fixed;fillColor=#008a00;strokeColor=#005700;fontColor=#ffffff;" parent="dNxyNK7c78bLwvsdeMH5-22" vertex="1">
          <mxGeometry x="826" y="50" width="20" height="20" as="geometry" />
        </mxCell>
        <mxCell id="VYftyO8wbhfdj3iP8Mo4-15" style="edgeStyle=orthogonalEdgeStyle;rounded=0;orthogonalLoop=1;jettySize=auto;html=1;entryX=0;entryY=0.5;entryDx=0;entryDy=0;" parent="dNxyNK7c78bLwvsdeMH5-22" source="VYftyO8wbhfdj3iP8Mo4-11" target="VYftyO8wbhfdj3iP8Mo4-14" edge="1">
          <mxGeometry relative="1" as="geometry" />
        </mxCell>
        <mxCell id="VYftyO8wbhfdj3iP8Mo4-20" style="edgeStyle=orthogonalEdgeStyle;rounded=0;orthogonalLoop=1;jettySize=auto;html=1;exitX=0;exitY=1;exitDx=0;exitDy=0;entryX=0;entryY=0.5;entryDx=0;entryDy=0;" parent="dNxyNK7c78bLwvsdeMH5-22" source="VYftyO8wbhfdj3iP8Mo4-11" target="VYftyO8wbhfdj3iP8Mo4-16" edge="1">
          <mxGeometry relative="1" as="geometry" />
        </mxCell>
        <mxCell id="VYftyO8wbhfdj3iP8Mo4-11" value="Policy or Exception is about to expire?&amp;nbsp;" style="rounded=1;whiteSpace=wrap;html=1;fillColor=#dae8fc;strokeColor=#6c8ebf;" parent="dNxyNK7c78bLwvsdeMH5-22" vertex="1">
          <mxGeometry x="894" y="35" width="100" height="50" as="geometry" />
        </mxCell>
        <mxCell id="VYftyO8wbhfdj3iP8Mo4-23" style="edgeStyle=orthogonalEdgeStyle;rounded=0;orthogonalLoop=1;jettySize=auto;html=1;entryX=0;entryY=0.5;entryDx=0;entryDy=0;" parent="dNxyNK7c78bLwvsdeMH5-22" source="VYftyO8wbhfdj3iP8Mo4-14" target="VYftyO8wbhfdj3iP8Mo4-22" edge="1">
          <mxGeometry relative="1" as="geometry" />
        </mxCell>
        <mxCell id="VYftyO8wbhfdj3iP8Mo4-14" value="Yes" style="rhombus;whiteSpace=wrap;html=1;fillColor=#d5e8d4;strokeColor=#82b366;" parent="dNxyNK7c78bLwvsdeMH5-22" vertex="1">
          <mxGeometry x="1031" y="35" width="50" height="50" as="geometry" />
        </mxCell>
        <mxCell id="VYftyO8wbhfdj3iP8Mo4-21" style="edgeStyle=orthogonalEdgeStyle;rounded=0;orthogonalLoop=1;jettySize=auto;html=1;entryX=1;entryY=1;entryDx=0;entryDy=0;" parent="dNxyNK7c78bLwvsdeMH5-22" source="VYftyO8wbhfdj3iP8Mo4-16" target="VYftyO8wbhfdj3iP8Mo4-11" edge="1">
          <mxGeometry relative="1" as="geometry">
            <Array as="points">
              <mxPoint x="994" y="140" />
            </Array>
          </mxGeometry>
        </mxCell>
        <mxCell id="VYftyO8wbhfdj3iP8Mo4-16" value="No" style="rhombus;whiteSpace=wrap;html=1;fillColor=#f8cecc;strokeColor=#b85450;" parent="dNxyNK7c78bLwvsdeMH5-22" vertex="1">
          <mxGeometry x="919" y="115" width="50" height="50" as="geometry" />
        </mxCell>
        <mxCell id="VYftyO8wbhfdj3iP8Mo4-22" value="Automated Emails to the Owner and LM" style="rounded=1;whiteSpace=wrap;html=1;fillColor=#dae8fc;strokeColor=#6c8ebf;" parent="dNxyNK7c78bLwvsdeMH5-22" vertex="1">
          <mxGeometry x="1113" y="35" width="116" height="50" as="geometry" />
        </mxCell>
        <mxCell id="VYftyO8wbhfdj3iP8Mo4-40" value="Notify the DLP Team and renewal the revision date" style="rounded=1;whiteSpace=wrap;html=1;fillColor=#dae8fc;strokeColor=#6c8ebf;" parent="dNxyNK7c78bLwvsdeMH5-22" vertex="1">
          <mxGeometry x="1297" y="70" width="120" height="60" as="geometry" />
        </mxCell>
        <mxCell id="VYftyO8wbhfdj3iP8Mo4-47" value="" style="ellipse;whiteSpace=wrap;html=1;aspect=fixed;fillColor=#e51400;strokeColor=#B20000;fontColor=#ffffff;" parent="dNxyNK7c78bLwvsdeMH5-22" vertex="1">
          <mxGeometry x="1347" y="157" width="20" height="20" as="geometry" />
        </mxCell>
        <mxCell id="VYftyO8wbhfdj3iP8Mo4-48" style="edgeStyle=orthogonalEdgeStyle;rounded=0;orthogonalLoop=1;jettySize=auto;html=1;entryX=0.5;entryY=0;entryDx=0;entryDy=0;" parent="dNxyNK7c78bLwvsdeMH5-22" source="VYftyO8wbhfdj3iP8Mo4-40" target="VYftyO8wbhfdj3iP8Mo4-47" edge="1">
          <mxGeometry relative="1" as="geometry" />
        </mxCell>
        <mxCell id="VYftyO8wbhfdj3iP8Mo4-54" value="Raise a Task to the DLP Team" style="rounded=1;whiteSpace=wrap;html=1;fillColor=#dae8fc;strokeColor=#6c8ebf;" parent="dNxyNK7c78bLwvsdeMH5-22" vertex="1">
          <mxGeometry x="1597" y="60" width="120" height="60" as="geometry" />
        </mxCell>
        <mxCell id="VYftyO8wbhfdj3iP8Mo4-66" value="Raise a Task to the DLP Team" style="rounded=1;whiteSpace=wrap;html=1;fillColor=#dae8fc;strokeColor=#6c8ebf;" parent="dNxyNK7c78bLwvsdeMH5-22" vertex="1">
          <mxGeometry x="1853" y="63.5" width="120" height="60" as="geometry" />
        </mxCell>
        <mxCell id="v4-evalS4Eremka4FDAH-41" style="edgeStyle=orthogonalEdgeStyle;rounded=0;orthogonalLoop=1;jettySize=auto;html=1;entryX=0.5;entryY=0;entryDx=0;entryDy=0;dashed=1;" parent="dNxyNK7c78bLwvsdeMH5-19" source="v4-evalS4Eremka4FDAH-10" target="v4-evalS4Eremka4FDAH-40" edge="1">
          <mxGeometry relative="1" as="geometry" />
        </mxCell>
        <mxCell id="v4-evalS4Eremka4FDAH-22" style="edgeStyle=orthogonalEdgeStyle;rounded=0;orthogonalLoop=1;jettySize=auto;html=1;entryX=0.5;entryY=0;entryDx=0;entryDy=0;dashed=1;" parent="dNxyNK7c78bLwvsdeMH5-19" source="v4-evalS4Eremka4FDAH-19" target="v4-evalS4Eremka4FDAH-21" edge="1">
          <mxGeometry relative="1" as="geometry" />
        </mxCell>
        <mxCell id="v4-evalS4Eremka4FDAH-5" value="DLP Team" style="swimlane;html=1;startSize=20;horizontal=0;" parent="dNxyNK7c78bLwvsdeMH5-19" vertex="1">
          <mxGeometry x="20" y="763" width="2289" height="150" as="geometry" />
        </mxCell>
        <mxCell id="VYftyO8wbhfdj3iP8Mo4-1" style="edgeStyle=orthogonalEdgeStyle;rounded=0;orthogonalLoop=1;jettySize=auto;html=1;entryX=0.5;entryY=0;entryDx=0;entryDy=0;" parent="v4-evalS4Eremka4FDAH-5" source="v4-evalS4Eremka4FDAH-21" target="v4-evalS4Eremka4FDAH-56" edge="1">
          <mxGeometry relative="1" as="geometry" />
        </mxCell>
        <mxCell id="v4-evalS4Eremka4FDAH-21" value="Implement the Policy on the Inventory and on the DLP Tool" style="rounded=1;whiteSpace=wrap;html=1;fillColor=#d5e8d4;strokeColor=#82b366;" parent="v4-evalS4Eremka4FDAH-5" vertex="1">
          <mxGeometry x="129.5" y="30" width="120" height="60" as="geometry" />
        </mxCell>
        <mxCell id="VYftyO8wbhfdj3iP8Mo4-3" style="edgeStyle=orthogonalEdgeStyle;rounded=0;orthogonalLoop=1;jettySize=auto;html=1;entryX=0.5;entryY=0;entryDx=0;entryDy=0;" parent="v4-evalS4Eremka4FDAH-5" source="v4-evalS4Eremka4FDAH-32" target="VYftyO8wbhfdj3iP8Mo4-2" edge="1">
          <mxGeometry relative="1" as="geometry" />
        </mxCell>
        <mxCell id="v4-evalS4Eremka4FDAH-32" value="Implement the Exception on the Inventory and on the DLP Tool" style="rounded=1;whiteSpace=wrap;html=1;fillColor=#d5e8d4;strokeColor=#82b366;" parent="v4-evalS4Eremka4FDAH-5" vertex="1">
          <mxGeometry x="388" y="30" width="120" height="60" as="geometry" />
        </mxCell>
        <mxCell id="VYftyO8wbhfdj3iP8Mo4-5" style="edgeStyle=orthogonalEdgeStyle;rounded=0;orthogonalLoop=1;jettySize=auto;html=1;entryX=0.5;entryY=0;entryDx=0;entryDy=0;" parent="v4-evalS4Eremka4FDAH-5" source="v4-evalS4Eremka4FDAH-38" target="VYftyO8wbhfdj3iP8Mo4-4" edge="1">
          <mxGeometry relative="1" as="geometry" />
        </mxCell>
        <mxCell id="v4-evalS4Eremka4FDAH-38" value="Implement the Exception on the Inventory" style="rounded=1;whiteSpace=wrap;html=1;fillColor=#d5e8d4;strokeColor=#82b366;" parent="v4-evalS4Eremka4FDAH-5" vertex="1">
          <mxGeometry x="626" y="30" width="120" height="60" as="geometry" />
        </mxCell>
        <mxCell id="v4-evalS4Eremka4FDAH-56" value="" style="ellipse;whiteSpace=wrap;html=1;aspect=fixed;fillColor=#e51400;strokeColor=#B20000;fontColor=#ffffff;" parent="v4-evalS4Eremka4FDAH-5" vertex="1">
          <mxGeometry x="179.5" y="117" width="20" height="20" as="geometry" />
        </mxCell>
        <mxCell id="VYftyO8wbhfdj3iP8Mo4-2" value="" style="ellipse;whiteSpace=wrap;html=1;aspect=fixed;fillColor=#e51400;strokeColor=#B20000;fontColor=#ffffff;" parent="v4-evalS4Eremka4FDAH-5" vertex="1">
          <mxGeometry x="438" y="117" width="20" height="20" as="geometry" />
        </mxCell>
        <mxCell id="VYftyO8wbhfdj3iP8Mo4-4" value="" style="ellipse;whiteSpace=wrap;html=1;aspect=fixed;fillColor=#e51400;strokeColor=#B20000;fontColor=#ffffff;" parent="v4-evalS4Eremka4FDAH-5" vertex="1">
          <mxGeometry x="676" y="117" width="20" height="20" as="geometry" />
        </mxCell>
        <mxCell id="VYftyO8wbhfdj3iP8Mo4-57" value="Revoke the Policy on the Inventory and DLP Tool" style="rounded=1;whiteSpace=wrap;html=1;fillColor=#d5e8d4;strokeColor=#82b366;" parent="v4-evalS4Eremka4FDAH-5" vertex="1">
          <mxGeometry x="1597" y="30" width="120" height="60" as="geometry" />
        </mxCell>
        <mxCell id="VYftyO8wbhfdj3iP8Mo4-58" value="" style="ellipse;whiteSpace=wrap;html=1;aspect=fixed;fillColor=#e51400;strokeColor=#B20000;fontColor=#ffffff;" parent="v4-evalS4Eremka4FDAH-5" vertex="1">
          <mxGeometry x="1647" y="117" width="20" height="20" as="geometry" />
        </mxCell>
        <mxCell id="VYftyO8wbhfdj3iP8Mo4-56" style="edgeStyle=orthogonalEdgeStyle;rounded=0;orthogonalLoop=1;jettySize=auto;html=1;entryX=0.5;entryY=0;entryDx=0;entryDy=0;" parent="v4-evalS4Eremka4FDAH-5" source="VYftyO8wbhfdj3iP8Mo4-57" target="VYftyO8wbhfdj3iP8Mo4-58" edge="1">
          <mxGeometry relative="1" as="geometry" />
        </mxCell>
        <mxCell id="VYftyO8wbhfdj3iP8Mo4-68" value="Revoke the Exception on the Inventory and on the DLP tool" style="rounded=1;whiteSpace=wrap;html=1;fillColor=#d5e8d4;strokeColor=#82b366;" parent="v4-evalS4Eremka4FDAH-5" vertex="1">
          <mxGeometry x="1852" y="30" width="120" height="60" as="geometry" />
        </mxCell>
        <mxCell id="VYftyO8wbhfdj3iP8Mo4-69" value="" style="ellipse;whiteSpace=wrap;html=1;aspect=fixed;fillColor=#e51400;strokeColor=#B20000;fontColor=#ffffff;" parent="v4-evalS4Eremka4FDAH-5" vertex="1">
          <mxGeometry x="1902" y="117" width="20" height="20" as="geometry" />
        </mxCell>
        <mxCell id="VYftyO8wbhfdj3iP8Mo4-71" style="edgeStyle=orthogonalEdgeStyle;rounded=0;orthogonalLoop=1;jettySize=auto;html=1;entryX=0.5;entryY=0;entryDx=0;entryDy=0;" parent="v4-evalS4Eremka4FDAH-5" source="VYftyO8wbhfdj3iP8Mo4-68" target="VYftyO8wbhfdj3iP8Mo4-69" edge="1">
          <mxGeometry relative="1" as="geometry" />
        </mxCell>
        <mxCell id="VYftyO8wbhfdj3iP8Mo4-78" style="edgeStyle=orthogonalEdgeStyle;rounded=0;orthogonalLoop=1;jettySize=auto;html=1;entryX=0.5;entryY=0;entryDx=0;entryDy=0;" parent="v4-evalS4Eremka4FDAH-5" source="VYftyO8wbhfdj3iP8Mo4-75" target="VYftyO8wbhfdj3iP8Mo4-77" edge="1">
          <mxGeometry relative="1" as="geometry" />
        </mxCell>
        <mxCell id="VYftyO8wbhfdj3iP8Mo4-75" value="Revoke the Exception on the Inventory" style="rounded=1;whiteSpace=wrap;html=1;fillColor=#d5e8d4;strokeColor=#82b366;" parent="v4-evalS4Eremka4FDAH-5" vertex="1">
          <mxGeometry x="2028" y="30" width="120" height="60" as="geometry" />
        </mxCell>
        <mxCell id="VYftyO8wbhfdj3iP8Mo4-77" value="" style="ellipse;whiteSpace=wrap;html=1;aspect=fixed;fillColor=#e51400;strokeColor=#B20000;fontColor=#ffffff;" parent="v4-evalS4Eremka4FDAH-5" vertex="1">
          <mxGeometry x="2078" y="117" width="20" height="20" as="geometry" />
        </mxCell>
        <mxCell id="v4-evalS4Eremka4FDAH-49" style="edgeStyle=orthogonalEdgeStyle;rounded=0;orthogonalLoop=1;jettySize=auto;html=1;entryX=0.5;entryY=0;entryDx=0;entryDy=0;dashed=1;" parent="dNxyNK7c78bLwvsdeMH5-19" source="v4-evalS4Eremka4FDAH-13" target="v4-evalS4Eremka4FDAH-19" edge="1">
          <mxGeometry relative="1" as="geometry" />
        </mxCell>
        <mxCell id="VYftyO8wbhfdj3iP8Mo4-25" style="edgeStyle=orthogonalEdgeStyle;rounded=0;orthogonalLoop=1;jettySize=auto;html=1;entryX=0.5;entryY=1;entryDx=0;entryDy=0;dashed=1;" parent="dNxyNK7c78bLwvsdeMH5-19" source="VYftyO8wbhfdj3iP8Mo4-22" target="VYftyO8wbhfdj3iP8Mo4-24" edge="1">
          <mxGeometry relative="1" as="geometry" />
        </mxCell>
        <mxCell id="VYftyO8wbhfdj3iP8Mo4-50" style="edgeStyle=orthogonalEdgeStyle;rounded=0;orthogonalLoop=1;jettySize=auto;html=1;entryX=0.5;entryY=0;entryDx=0;entryDy=0;dashed=1;" parent="dNxyNK7c78bLwvsdeMH5-19" source="VYftyO8wbhfdj3iP8Mo4-31" target="VYftyO8wbhfdj3iP8Mo4-40" edge="1">
          <mxGeometry relative="1" as="geometry">
            <Array as="points">
              <mxPoint x="1320" y="598" />
              <mxPoint x="1377" y="598" />
            </Array>
          </mxGeometry>
        </mxCell>
        <mxCell id="VYftyO8wbhfdj3iP8Mo4-51" style="edgeStyle=orthogonalEdgeStyle;rounded=0;orthogonalLoop=1;jettySize=auto;html=1;entryX=0.5;entryY=0;entryDx=0;entryDy=0;dashed=1;" parent="dNxyNK7c78bLwvsdeMH5-19" target="VYftyO8wbhfdj3iP8Mo4-40" edge="1">
          <mxGeometry relative="1" as="geometry">
            <mxPoint x="1446.0000000000005" y="237.99999999999966" as="sourcePoint" />
            <mxPoint x="1377" y="616" as="targetPoint" />
            <Array as="points">
              <mxPoint x="1446" y="598" />
              <mxPoint x="1377" y="598" />
            </Array>
          </mxGeometry>
        </mxCell>
        <mxCell id="VYftyO8wbhfdj3iP8Mo4-55" style="edgeStyle=orthogonalEdgeStyle;rounded=0;orthogonalLoop=1;jettySize=auto;html=1;entryX=0.5;entryY=0;entryDx=0;entryDy=0;dashed=1;" parent="dNxyNK7c78bLwvsdeMH5-19" source="VYftyO8wbhfdj3iP8Mo4-36" target="VYftyO8wbhfdj3iP8Mo4-54" edge="1">
          <mxGeometry relative="1" as="geometry" />
        </mxCell>
        <mxCell id="VYftyO8wbhfdj3iP8Mo4-59" style="edgeStyle=orthogonalEdgeStyle;rounded=0;orthogonalLoop=1;jettySize=auto;html=1;entryX=0.5;entryY=0;entryDx=0;entryDy=0;dashed=1;" parent="dNxyNK7c78bLwvsdeMH5-19" source="VYftyO8wbhfdj3iP8Mo4-54" target="VYftyO8wbhfdj3iP8Mo4-57" edge="1">
          <mxGeometry relative="1" as="geometry" />
        </mxCell>
        <mxCell id="VYftyO8wbhfdj3iP8Mo4-67" style="edgeStyle=orthogonalEdgeStyle;rounded=0;orthogonalLoop=1;jettySize=auto;html=1;entryX=0.5;entryY=0;entryDx=0;entryDy=0;dashed=1;" parent="dNxyNK7c78bLwvsdeMH5-19" source="VYftyO8wbhfdj3iP8Mo4-63" target="VYftyO8wbhfdj3iP8Mo4-66" edge="1">
          <mxGeometry relative="1" as="geometry" />
        </mxCell>
        <mxCell id="VYftyO8wbhfdj3iP8Mo4-70" style="edgeStyle=orthogonalEdgeStyle;rounded=0;orthogonalLoop=1;jettySize=auto;html=1;entryX=0.5;entryY=0;entryDx=0;entryDy=0;dashed=1;" parent="dNxyNK7c78bLwvsdeMH5-19" source="VYftyO8wbhfdj3iP8Mo4-66" target="VYftyO8wbhfdj3iP8Mo4-68" edge="1">
          <mxGeometry relative="1" as="geometry" />
        </mxCell>
        <mxCell id="VYftyO8wbhfdj3iP8Mo4-74" style="edgeStyle=orthogonalEdgeStyle;rounded=0;orthogonalLoop=1;jettySize=auto;html=1;entryX=0.5;entryY=0;entryDx=0;entryDy=0;dashed=1;" parent="dNxyNK7c78bLwvsdeMH5-19" source="VYftyO8wbhfdj3iP8Mo4-62" target="VYftyO8wbhfdj3iP8Mo4-72" edge="1">
          <mxGeometry relative="1" as="geometry">
            <Array as="points">
              <mxPoint x="2108" y="352" />
              <mxPoint x="2033" y="352" />
            </Array>
          </mxGeometry>
        </mxCell>
        <mxCell id="VYftyO8wbhfdj3iP8Mo4-76" style="edgeStyle=orthogonalEdgeStyle;rounded=0;orthogonalLoop=1;jettySize=auto;html=1;entryX=0.5;entryY=0;entryDx=0;entryDy=0;dashed=1;" parent="dNxyNK7c78bLwvsdeMH5-19" source="VYftyO8wbhfdj3iP8Mo4-72" target="VYftyO8wbhfdj3iP8Mo4-75" edge="1">
          <mxGeometry relative="1" as="geometry" />
        </mxCell>
        <mxCell id="tAVjkg7Ws9VdsKaBqIAJ-6" style="edgeStyle=orthogonalEdgeStyle;rounded=0;orthogonalLoop=1;jettySize=auto;html=1;entryX=0.5;entryY=0;entryDx=0;entryDy=0;dashed=1;" edge="1" parent="dNxyNK7c78bLwvsdeMH5-19">
          <mxGeometry relative="1" as="geometry">
            <mxPoint x="2108" y="242" as="sourcePoint" />
            <mxPoint x="2184" y="401" as="targetPoint" />
            <Array as="points">
              <mxPoint x="2108" y="352" />
              <mxPoint x="2184" y="352" />
            </Array>
          </mxGeometry>
        </mxCell>
        <mxCell id="v4-evalS4Eremka4FDAH-55" value="&lt;b&gt;New Policies &amp;amp; Exceptions&lt;/b&gt;" style="rounded=0;whiteSpace=wrap;html=1;" parent="VYftyO8wbhfdj3iP8Mo4-6" vertex="1">
          <mxGeometry x="40" width="777" height="27" as="geometry" />
        </mxCell>
        <mxCell id="VYftyO8wbhfdj3iP8Mo4-8" value="&lt;b&gt;Policies &amp;amp; Exceptions Lifecycle&lt;/b&gt;" style="rounded=0;whiteSpace=wrap;html=1;" parent="VYftyO8wbhfdj3iP8Mo4-6" vertex="1">
          <mxGeometry x="817" width="1465" height="27" as="geometry" />
        </mxCell>
        <mxCell id="VYftyO8wbhfdj3iP8Mo4-9" value="" style="endArrow=none;dashed=1;html=1;entryX=0;entryY=1;entryDx=0;entryDy=0;" parent="1" target="VYftyO8wbhfdj3iP8Mo4-8" edge="1">
          <mxGeometry width="50" height="50" relative="1" as="geometry">
            <mxPoint x="937" y="1031" as="sourcePoint" />
            <mxPoint x="995" y="288" as="targetPoint" />
          </mxGeometry>
        </mxCell>
      </root>
    </mxGraphModel>
  </diagram>
</mxfile>
